<?xml version="1.0" standalone="no"?><!DOCTYPE svg PUBLIC "-//W3C//DTD SVG 1.1//EN" "http://www.w3.org/Graphics/SVG/1.1/DTD/svg11.dtd"><svg t="1584162504528" class="icon" viewBox="0 0 1194 1024" version="1.1" xmlns="http://www.w3.org/2000/svg" p-id="2080" xmlns:xlink="http://www.w3.org/1999/xlink" width="233.203125" height="200"><defs><style type="text/css"></style></defs><path d="M171.221333 658.688a490.325333 490.325333 0 0 1-11.946666-246.613333c22.144-108.032 76.373333-201.258667 162.730666-279.637334C409.898667 56.32 510.037333 13.141333 622.378667 2.858667c112.426667-10.24 219.178667 13.866667 320.298666 72.490666-78.549333 5.333333-149.930667 28.16-214.101333 68.48a437.418667 437.418667 0 0 0-152.234667 162.133334c-37.333333 67.712-55.424 138.88-54.272 213.461333a422.485333 422.485333 0 0 0 25.685334 139.264h609.578666c24.874667 0 37.333333 12.202667 37.333334 36.522667 0 24.362667-12.458667 36.565333-37.333334 36.565333H37.333333c-24.874667 0-37.333333-12.202667-37.333333-36.565333 0-24.32 12.458667-36.522667 37.333333-36.522667h133.888z m298.965334 0a493.44 493.44 0 0 1-22.186667-146.133333c0.768-90.538667 23.125333-174.250667 67.072-251.136 43.946667-76.842667 105.6-138.88 184.917333-186.069334-76.202667-4.565333-147.968 8.362667-215.253333 38.826667a442.154667 442.154667 0 0 0-169.728 134.698667c-45.909333 59.349333-74.496 124.8-85.76 196.352-11.264 71.509333-4.48 142.677333 20.437333 213.461333h220.501334z m-283.52 146.133333h448c10.88 0 19.84 3.413333 26.837333 10.24 6.997333 6.869333 10.496 15.616 10.496 26.282667s-3.498667 19.413333-10.496 26.24a36.778667 36.778667 0 0 1-26.837333 10.282667h-448a36.778667 36.778667 0 0 1-26.837334-10.24 35.157333 35.157333 0 0 1-10.496-26.282667c0-10.666667 3.498667-19.413333 10.496-26.24a36.778667 36.778667 0 0 1 26.837334-10.282667z m186.666666 146.133334h261.333334c10.88 0 19.84 3.413333 26.837333 10.24 6.997333 6.869333 10.496 15.616 10.496 26.282666s-3.498667 19.413333-10.496 26.24a36.778667 36.778667 0 0 1-26.837333 10.282667H373.333333a41.088 41.088 0 0 1-26.837333-11.434667 33.792 33.792 0 0 1-10.496-25.088c0-10.666667 3.498667-19.413333 10.496-26.282666a36.778667 36.778667 0 0 1 26.837333-10.24z" fill="#f4ea2a" p-id="2081"></path></svg>