<?xml version="1.0" standalone="no"?><!DOCTYPE svg PUBLIC "-//W3C//DTD SVG 1.1//EN" "http://www.w3.org/Graphics/SVG/1.1/DTD/svg11.dtd"><svg t="1584180254336" class="icon" viewBox="0 0 1509 1024" version="1.1" xmlns="http://www.w3.org/2000/svg" p-id="2392" xmlns:xlink="http://www.w3.org/1999/xlink" width="294.7265625" height="200"><defs><style type="text/css"></style></defs><path d="M47.182109 930.880628h1414.590171a44.99744 44.99744 0 0 1 47.153006 46.560225 44.99744 44.99744 0 0 1-47.153006 46.506336H47.182109A44.99744 44.99744 0 0 1 0.029103 977.386964a44.99744 44.99744 0 0 1 47.153006-46.506336z m190.06703-139.626786c15.735632-134.776763 71.510901-245.572854 167.271919-332.334385C500.282077 372.157927 616.952085 327.268265 754.477195 324.358251c137.525109 2.910014 254.195118 47.799676 349.956136 134.561206 95.761018 86.761531 151.536288 197.557622 167.271919 332.334385H1175.890343c-13.741733-108.586636-59.655288-197.342065-137.740666-266.212398C960.01041 456.278889 865.488842 420.927607 754.477195 418.933708c-111.011648 1.993899-205.533216 37.345181-283.672483 106.161625-78.085377 68.870333-123.998933 157.625762-137.740666 266.212398H237.249139zM754.477195 0.05335a44.99744 44.99744 0 0 1 47.153005 46.560225v139.572897a44.99744 44.99744 0 0 1-47.153005 46.560225 44.99744 44.99744 0 0 1-47.153006-46.560225V46.667464A44.99744 44.99744 0 0 1 754.477195 0.05335z m599.732343 245.788411c9.807825 9.700047 14.711738 20.585655 14.711738 32.710713a44.943551 44.943551 0 0 1-14.711738 32.764603l-100.233818 98.886589a43.272987 43.272987 0 0 1-44.889661 11.640057 45.159107 45.159107 0 0 1-33.195716-32.764603 41.979647 41.979647 0 0 1 11.855613-44.35077l100.126039-98.886589a46.075223 46.075223 0 0 1 33.195716-14.550071c12.286726 0 23.334002 4.850023 33.141827 14.550071z m-1199.464687 0a46.075223 46.075223 0 0 1 33.141827-14.550071c12.286726 0 23.334002 4.850023 33.195716 14.550071L321.208434 344.72835c12.771728 12.610061 16.705636 27.429577 11.801723 44.35077a45.159107 45.159107 0 0 1-33.195716 32.764603 43.272987 43.272987 0 0 1-44.94355-11.640057L154.744851 311.317077a44.943551 44.943551 0 0 1-14.711738-32.764603c0-12.125059 4.850023-23.010667 14.711738-32.710713z" fill="#262626" p-id="2393"></path></svg>